# xmcd
#
# Track frame offsets: 
#        150
#        19502
#        37085
#        54265
#        76509
#        93856
#        113966
#        132608
#        151288
#        172468
#        191915
#        209510
#        227264
#        245621
#        265074
#        284815
#        302876
#        323955
#
# Disc length: 4539 seconds
#
# Revision: 0
# Processed by: cddbd v1.5.2PL0 Copyright (c) Steve Scherf et al.
# Submitted via: ExactAudioCopyFreeDBPlugin 1.0
#
DISCID=0211b912
DTITLE=陈慧娴 - 今天的愛人是誰
DYEAR=1994
DGENRE=World Pop
TTITLE0=今天的愛人是誰
TTITLE1=Let's Get Married
TTITLE2=傻女
TTITLE3=千千闋歌
TTITLE4=人生何處不相逢
TTITLE5=夜機
TTITLE6=為何仍是你
TTITLE7=紅茶館
TTITLE8=月亮
TTITLE9=玻璃窗的愛
TTITLE10=花店
TTITLE11=飄雪
TTITLE12=永遠愛你的人
TTITLE13=Jealousy
TTITLE14=凌晨舊戲
TTITLE15=逝去的諾言
TTITLE16=歸來吧
TTITLE17=痴情意外
EXTD=
EXTT0=
EXTT1=
EXTT2=
EXTT3=
EXTT4=
EXTT5=
EXTT6=
EXTT7=
EXTT8=
EXTT9=
EXTT10=
EXTT11=
EXTT12=
EXTT13=
EXTT14=
EXTT15=
EXTT16=
EXTT17=
PLAYORDER=
